<?xml version="1.0" encoding="UTF-8"?>
<svg id="b" data-name="Layer 2" xmlns="http://www.w3.org/2000/svg" width="123.636" height="129.359" viewBox="0 0 123.636 129.359">
  <style>
    @keyframes pulse {
      0%, 100% { opacity: 1; }
      50% { opacity: 0.6; }
    }
    @keyframes float {
      0%, 100% { transform: translateY(0); }
      50% { transform: translateY(-4px); }
    }
    @keyframes glow {
      0%, 100% { filter: drop-shadow(0 0 2px rgba(190, 233, 111, 0.3)); }
      50% { filter: drop-shadow(0 0 8px rgba(190, 233, 111, 0.6)); }
    }
    .pin-main { animation: float 2s ease-in-out infinite; }
    .highlight-green { animation: pulse 1.5s ease-in-out infinite; }
    .highlight-teal { animation: pulse 1.5s ease-in-out infinite 0.2s; }
    .highlight-cyan { animation: pulse 1.5s ease-in-out infinite 0.4s; }
    .frame-left { animation: pulse 2s ease-in-out infinite 0.1s; }
    .frame-right { animation: pulse 2s ease-in-out infinite 0.3s; }
    .frame-top { animation: pulse 2s ease-in-out infinite 0.5s; }
    #b { animation: glow 2s ease-in-out infinite; }
  </style>
  <g id="c" data-name="Layer 1">
    <g class="pin-main">
      <path d="M89.538,94.058l-26.647,35.302-26.606-34.162c-5.845-7.505-10.933-14.961-15.593-23.232C9.289,51.42,11.35,27.404,29.597,11.789,43.162.181,61.732-2.943,78.635,2.809c11.809,4.018,21.233,12.333,26.851,23.456,7.12,14.095,5.233,30.212-1.467,44.145-4.325,8.243-8.701,15.991-14.48,23.647ZM42.723,9.424c-2.403.659-4.826,2.119-6.562,3.822-11.71,7.106-18.202,20.688-17.684,34.663.22,5.929,1.622,11.28,3.751,16.456,2.784,6.767,6.615,13.054,11.08,19.141,4.061,5.537,7.863,10.992,12.188,16.012,1.212,2.035,2.643,4.054,4.239,6.084l13.188,16.762c5.999-7.557,11.266-14.673,16.386-22.112,1.679-2.44,3.897-4.622,5.154-7.347l2.765-3.741c1.869-2.529,3.823-5.044,5.145-7.886.744-.901,1.728-2.161,2.044-3.337,1.294-1.323,2.167-3.059,3.03-4.763l2.343-4.629c1.789-3.535,3.094-7.038,4.084-11.368-1.86.719-3.051,1.175-4.364,1.784l-1.334-1.728c-.322-.418-1.382-.139-1.981.056l8.302-4.547c2.6-14.064-2.814-29.395-14.399-37.543-3.822-3.889-9.163-6.603-14.482-7.737-.767-.463-2.009-.57-2.903-.848-4.782-1.49-9.988-1.684-14.994-1.217-5.189.484-10.532,1.373-14.995,4.023Z" style="fill: #1c2c3d;"/>
      <polygon class="frame-left" points="5.167 108.571 39.628 108.677 43.827 113.697 .004 113.711 0 5.318 33.458 5.302 26.414 10.264 5.155 10.355 5.167 108.571" style="fill: #1a2838;"/>
      <path class="frame-right" d="M85.883,108.69l32.472-.051.037-56.665c-2.304.45-2.602,2.749-4.965,1.904l10.179-7.744.03,67.57-41.934.01,4.18-5.025Z" style="fill: #213040;"/>
      <polygon class="frame-top" points="118.409 45.01 118.336 10.35 96.051 10.239 89.34 5.24 123.611 5.347 123.624 41.186 118.409 45.01" style="fill: #213040;"/>
      <path d="M73.736,26.286l4.936,2.544.116,29.613,4.416,1.792.168-15.754,3.595-2.54,8.516,5.268c.444,3.413-.564,7.084.71,10.083.599-.195,1.659-.474,1.981-.056l1.334,1.728c-1.225.568-2.41,1.282-3.86,2.154l-.025,4.554c-.002.392,1.102.827,1.494.845-1.536.473-3.066,1.266-4.202,2.367-1.594.733-3.159,1.561-4.731,2.391-3.511,1.854-4.704,2.073-7.492,3.657l-11.707,2.812c-.239.023-.702.075-.937.079l-3.278.055-8.897-.087c-1.43-.478-4.183-.903-5.607-.928l-.485-.009-6.075-1.904c-4.918-2.486-14.359-6.969-17.838-10.881l2.476.29v-6.024s5.987-.089,5.987-.089l4.07.804.095,6.145c.009.61,2.001,1.089,1.998.484l-.032-7,.062-13.344,4.135-1.61c-.099-1.821.392-2.981,1.773-3.237.435-.081,1.145-.219,1.484-.428l5.829.221.397,3.875,3.377,1.222.179,18.939,3.542-1.893-.183-35.459c1.723-.774,3.574-1.982,5.428-3.065l.273-3.648c.057-.759.139-1.846.412-2.229.228.111.676.882.709,1.335l.322,4.354,5.535,2.576Z" style="fill: #1d3241;"/>
      <path class="highlight-green" d="M96.194,57.293c-1.274-3-.266-6.671-.71-10.083l-8.516-5.268-3.595,2.54-.168,15.754-4.416-1.792-.116-29.613-4.936-2.544c1.319-1.425,2.99-2.483,4.856-3.433l6.9-3.83,3.115-1.66c.818-.436,1.452-1.263,1.489-2.159,11.586,8.148,17,23.479,14.399,37.543l-8.302,4.547Z" style="fill: #bee96f;"/>
      <path class="highlight-cyan" d="M25.869,64.069c3.479,3.912,12.92,8.395,17.838,10.881,1.858.939,3.881,1.865,6.075,1.904l.485.009c.522,1.377,2.129,2.226,3.443,3.114,2.013,1.36.665,3.968,1.393,5.858.665,1.728,2.711,3.316,3.937,4.811s2.157,3.653,3.479,4.866l3.114,2.857c-3.565-.514-8.152-1.959-10.784-.992-6.004,2.207-2.509,1.746-9.353,2.141-4.325-5.02-8.127-10.475-12.188-16.012-4.465-6.087-8.296-12.374-11.08-19.141,1.169-.376,2.411-.44,3.641-.296Z" style="fill: #1b98b8;"/>
      <path class="highlight-cyan" d="M65.633,98.369l9.932,1.432c1.315.19,2.678.187,3.744.451-5.12,7.439-10.387,14.556-16.386,22.112l-13.188-16.762c-1.596-2.029-3.027-4.048-4.239-6.084,6.844-.395,3.349.066,9.353-2.141,2.632-.967,7.22.478,10.784.992Z" style="fill: #1195b6;"/>
      <path class="highlight-green" d="M72.711,6.618l2.313,1.416c-2.121,1.449-4.301,2.289-6.077,3.765l-6.98,5.803c-2.457,2.043-8.614,9.402-10.949,12.402-2.36,3.033-3.858,6.865-4.587,10.483-1.381.257-1.872,1.416-1.773,3.237l-4.135,1.61-.062,13.344c.033.037-.393-.459-.521-.583-.118-4.431.348-9.695-.254-14.08-.329-2.392-1.573-4.337-.71-6.917,1.52-4.545,3.239-8.976,5.55-13.2,1.032-1.887,2.548-3.339,3.934-4.948,1.643-1.907,2.985-4.222,4.954-5.783,1.722-1.365,3.146-2.672,4.668-4.247l2.796-2.895-3.162-.624c5.006-.467,10.211-.273,14.994,1.217Z" style="fill: #5ed48f;"/>
      <path class="highlight-teal" d="M55.874,77.79c2.749.919,5.912.496,8.897.556l3.212.064c.433,2.121,1.889,4.186,3.682,5.67l4.874,4.036c2.435,2.016,5.199,3.551,7.923,4.788-1.257,2.726-3.474,4.908-5.154,7.347-1.066-.264-2.429-.261-3.744-.451l-9.932-1.432-3.114-2.857c-1.322-1.214-2.253-3.372-3.479-4.866s-3.272-3.084-3.937-4.811c-.728-1.891.62-4.498-1.393-5.858-1.314-.888-2.921-1.736-3.443-3.114,1.424.025,4.177.45,5.607.928Z" style="fill: #1ba6b4;"/>
      <path class="highlight-teal" d="M36.161,13.246c-3.31,5.471-3.432,5.18-5.027,11.852-1.349,5.64-3.611,21.163-3.243,26.56l.455,6.676v6.024s-2.478-.29-2.478-.29c-1.229-.144-2.472-.08-3.641.296-2.129-5.176-3.531-10.527-3.751-16.456-.518-13.974,5.974-27.557,17.684-34.663Z" style="fill: #34bcac;"/>
      <path class="highlight-green" d="M57.718,5.401l3.162.624-2.796,2.895c-1.521,1.575-2.946,2.882-4.668,4.247-1.969,1.561-3.312,3.877-4.954,5.783-1.386,1.609-2.902,3.06-3.934,4.948-2.311,4.224-4.03,8.655-5.55,13.2-.863,2.58.382,4.524.71,6.917.603,4.385.136,9.649.254,14.08.127.124.553.62.521.583l.032,7c.003.606-1.989.127-1.998-.484l-.095-6.145-4.07-.804.085-21.11c.008-1.994,3.706-12.712,4.725-14.966,1.597-3.537,3.993-6.801,6.47-9.81l3.963-4.816-6.852,1.881c4.462-2.65,9.806-3.538,14.995-4.023Z" style="fill: #50ce96;"/>
      <path class="highlight-teal" d="M34.332,58.246l-5.986.089-.455-6.676c-.368-5.397,1.894-20.92,3.243-26.56,1.595-6.672,1.717-6.381,5.027-11.852,1.736-1.703,4.16-3.163,6.562-3.822l6.852-1.881-3.963,4.816c-2.476,3.009-4.872,6.274-6.47,9.81-1.018,2.255-4.717,12.973-4.725,14.966l-.085,21.11Z" style="fill: #46d1a4;"/>
      <path class="highlight-green" d="M90.097,15.203c-.037.896-.671,1.723-1.489,2.159l-3.115,1.66-6.9,3.83c-1.866.95-3.537,2.008-4.856,3.433l-5.535-2.576-.322-4.354c-.033-.453-.481-1.224-.709-1.335l7.614-5.466c5.183-3.721,3.326-3.584,2.411-4.136l-1.581-.954c5.32,1.134,10.66,3.848,14.482,7.737Z" style="fill: #8ce081;"/>
      <path class="highlight-green" d="M75.614,7.466l1.581.954c.915.552,2.773.415-2.411,4.136l-7.614,5.466c-.273.383-.355,1.47-.412,2.229l-.273,3.648c-1.854,1.083-3.705,2.29-5.428,3.065-1.437.646-2.504.883-3.604,2.404-1.984,2.742-3.806,5.334-5.113,8.489-.499,1.205-1.191,1.69-2.612,1.635-.661-.025-1.404.315-1.812.567-.339.209-1.049.347-1.484.428.729-3.618,2.227-7.45,4.587-10.483,2.334-3,8.492-10.359,10.949-12.402l6.98-5.803c1.776-1.477,3.956-2.316,6.077-3.765l-2.313-1.416c.894.278,2.136.385,2.903.848Z" style="fill: #78d981;"/>
      <path class="highlight-teal" d="M87.228,89.163l-2.765,3.741c-2.724-1.238-5.488-2.772-7.923-4.788l-4.874-4.036c-1.793-1.485-3.249-3.549-3.682-5.67l.066-.587c.235-.004.697-.056.937-.079,3.661.727,5.207-1.012,8.718-1.128l4.923,5.406c1.587,1.743,2.691,3.728,4.876,5.064l-.274,2.077Z" style="fill: #25b5ad;"/>
      <path class="highlight-teal" d="M92.373,81.277c-1.322,2.842-3.276,5.357-5.145,7.886l.274-2.077c-2.185-1.336-3.288-3.321-4.876-5.064l-4.923-5.406c-3.512.116-5.057,1.855-8.718,1.128l11.707-2.812,2.951-.709c4.033,1.715,2.931,4.442,8.729,7.054Z" style="fill: #34bcac;"/>
      <path class="highlight-green" d="M94.417,77.94c-.316,1.176-1.3,2.436-2.044,3.337-5.798-2.612-4.697-5.34-8.729-7.054l-2.951.709c2.788-1.583,3.981-1.802,7.492-3.657,1.325.888,2.238,2.305,3.453,3.566,1.026,1.065,2.508,1.702,2.778,3.1Z" style="fill: #50ce96;"/>
      <path class="highlight-green" d="M99.789,68.549l-.933-1.689c-.202-.365-1.321-.324-1.738-.343-.391-.018-1.496-.454-1.494-.845l.025-4.554c1.45-.871,2.634-1.585,3.86-2.154,1.313-.609,2.505-1.064,4.364-1.784-.99,4.33-2.295,7.833-4.084,11.368Z" style="fill: #8ce081;"/>
      <path class="highlight-green" d="M92.916,68.884c1.967.854,3.782,2.286,4.53,4.293-.862,1.704-1.735,3.439-3.03,4.763-.27-1.397-1.752-2.035-2.778-3.1-1.215-1.261-2.128-2.677-3.453-3.566,1.572-.83,3.136-1.657,4.731-2.391Z" style="fill: #5ed48f;"/>
      <path class="highlight-green" d="M97.118,66.517c.417.019,1.536-.022,1.738.343l.933,1.689-2.343,4.629c-.749-2.007-2.563-3.44-4.53-4.293,1.136-1.101,2.666-1.894,4.202-2.367Z" style="fill: #78d981;"/>
      <path class="highlight-green" d="M47.916,40.059c.408-.251,1.152-.592,1.812-.567,1.421.054,2.113-.431,2.612-1.635,1.307-3.155,3.129-5.747,5.113-8.489,1.1-1.521,2.168-1.759,3.604-2.404l.183,35.459-3.542,1.893-.179-18.939-3.377-1.222-.397-3.875-5.829-.221Z" style="fill: #8ce081;"/>
      <path class="highlight-teal" d="M64.771,77.878v.468c-2.985-.059-6.148.364-8.897-.556l8.897.087Z" style="fill: #25b5ad;"/>
      <polygon class="highlight-teal" points="68.049 77.822 67.983 78.41 64.771 78.346 64.771 77.878 68.049 77.822" style="fill: #34bcac;"/>
      <path class="highlight-cyan" d="M49.782,76.854c-2.194-.039-4.217-.965-6.075-1.904l6.075,1.904Z" style="fill: #1ba6b4;"/>
    </g>
  </g>
</svg>
